<svg id="Layer_1" data-name="Layer 1" xmlns="http://www.w3.org/2000/svg" viewBox="0 0 57.55 79.57"><defs><style>.cls-1{fill:#fff;}</style></defs><path class="cls-1" d="M15.13,52.16,23,1.74a1.8,1.8,0,0,1,3.37-.56L34.77,17ZM70.79,64.41,63.34,18a1.79,1.79,0,0,0-2.09-1.46,1.81,1.81,0,0,0-1,.49l-47,47.36,26,14.68a5.34,5.34,0,0,0,5.25,0ZM49.63,23.92l-6-11.54a1.78,1.78,0,0,0-2.4-.76,1.82,1.82,0,0,0-.77.76L14,59.83Z" transform="translate(-13.24 -0.22)"/><path class="cls-1" d="M49.63,23.92l-6-11.54a1.78,1.78,0,0,0-2.4-.76,1.82,1.82,0,0,0-.77.76L14,59.83Z" transform="translate(-13.24 -0.22)"/></svg>