<svg id="Layer_1" data-name="Layer 1" xmlns="http://www.w3.org/2000/svg" xmlns:xlink="http://www.w3.org/1999/xlink" viewBox="0 0 61.29 75.86"><defs><style>.cls-1{fill:#fff;fill-opacity:0.8;}.cls-2{fill:#757575;}.cls-3{fill:#c6c6c6;}.cls-4{fill:url(#linear-gradient);}.cls-5{fill:url(#linear-gradient-2);}</style><linearGradient id="linear-gradient" x1="-1512.65" y1="413.37" x2="-1512.65" y2="413.34" gradientTransform="matrix(380.4, -380.42, -53.1, -53.1, 597404.32, -553430.42)" gradientUnits="userSpaceOnUse"><stop offset="0.2" stop-opacity="0.15"/><stop offset="0.85" stop-color="#616161" stop-opacity="0.01"/></linearGradient><linearGradient id="linear-gradient-2" x1="-1516.65" y1="397.08" x2="-1516.62" y2="397.08" gradientTransform="matrix(565.29, 0, 0, -380.96, 857383.4, 151332.75)" gradientUnits="userSpaceOnUse"><stop offset="0.2" stop-opacity="0.55"/><stop offset="0.85" stop-color="#616161" stop-opacity="0.01"/></linearGradient></defs><path class="cls-1" d="M18.53,50.75,6.85,39.07,44.78,1.14H68.14m0,35H44.78L36,44.89,47.71,56.57" transform="translate(-6.85 -1.14)"/><path class="cls-2" d="M36,68.25,44.78,77H68.14L47.71,56.57" transform="translate(-6.85 -1.14)"/><path class="cls-3" d="M24.38,56.58,36,44.91,47.71,56.58,36,68.24Z" transform="translate(-6.85 -1.14)"/><path class="cls-4" d="M36,68.24,47.7,56.57l1.63,1.63L37.67,69.87Z" transform="translate(-6.85 -1.14)"/><path class="cls-5" d="M36,68.25l17.33-6-5.65-5.69" transform="translate(-6.85 -1.14)"/></svg>