<svg id="Layer_1" data-name="Layer 1" xmlns="http://www.w3.org/2000/svg" viewBox="0 0 62.84 79.36"><defs><style>.cls-1{fill:#fff;}</style></defs><path class="cls-1" d="M63.21,61.72c1.2.66,2.44,1.16,2.79,2.56s-.45,2.67-1.51,3.61a15.17,15.17,0,0,1-5.67,2.88,59.36,59.36,0,0,1-13,2.37,104.27,104.27,0,0,1-14.68.29,63.1,63.1,0,0,1-14.64-2.17A15.27,15.27,0,0,1,11,68.69a5.73,5.73,0,0,1-1.17-1.24c-1.13-1.73-.65-3.34,1.38-4.55a13.64,13.64,0,0,1,9.52-1.47,7.06,7.06,0,0,1,2.63,1.49c-.6,0-1.21,0-1.81,0a7.58,7.58,0,0,0-4.09,1.13c-1.11.73-1.15,1.62-.1,2.44a10.24,10.24,0,0,0,4.29,1.76A83.94,83.94,0,0,0,44,69.74,55.61,55.61,0,0,0,56.09,68.1a25.6,25.6,0,0,0,5.12-2C63.14,65.08,63.56,63.94,63.21,61.72Z" transform="translate(-9.24)"/><path class="cls-1" d="M39.73,40.93c-1.22-1-2.47-1.87-3.65-2.88a28.71,28.71,0,0,1-6.63-7.52c-1.24-2.19-2-4.49-1.12-7a9.93,9.93,0,0,1,2.8-4.09c2.4-2.16,4.87-4.24,7.34-6.31A33.74,33.74,0,0,0,44.68,7,7.64,7.64,0,0,0,46.15.42a2.57,2.57,0,0,1,0-.42,11,11,0,0,1,1.69,3.69c1,3.74-.1,7.05-2.4,9.94-1.87,2.36-4,4.48-6,6.74-1.38,1.55-2.8,3.08-4.06,4.73A5.33,5.33,0,0,0,34.71,31a73.54,73.54,0,0,0,4.9,9.4c.09.14.17.29.25.44Z" transform="translate(-9.24)"/><path class="cls-1" d="M30.59,39.67c-1.68.61-3.34,1.2-5,1.83a4.58,4.58,0,0,0-1.18.74c-.54.45-.47.89.2,1a25.65,25.65,0,0,0,3.77.58A144.07,144.07,0,0,0,53,42.93a27.6,27.6,0,0,1,3.35-.31c-.54.42-1.12.8-1.63,1.27a12.48,12.48,0,0,1-7.27,3,116.06,116.06,0,0,1-19.71,1.07,32.29,32.29,0,0,1-10-1.57,7.48,7.48,0,0,1-1.59-.82,1.87,1.87,0,0,1-.13-3.2,9.29,9.29,0,0,1,4.21-1.75,48.74,48.74,0,0,1,10-1C30.34,39.63,30.46,39.66,30.59,39.67Z" transform="translate(-9.24)"/><path class="cls-1" d="M42.66,42.55c.47-.55,1-1.07,1.4-1.66a5.16,5.16,0,0,0,.21-6.57c-.86-1.36-1.79-2.69-2.63-4.06-2.16-3.54-.71-7.78,1.28-10.08A18.22,18.22,0,0,1,52,14.84c2.21-.64,4.49-1,6.74-1.51l.09.27-.67.46a57.23,57.23,0,0,0-9,6.74,16.85,16.85,0,0,0-1.85,2.1c-1.17,1.55-.91,3.18-.12,4.78.61,1.24,1.28,2.45,2,3.65,2.27,4.06.58,7.58-2.7,9.68A33.66,33.66,0,0,1,42.8,42.8Z" transform="translate(-9.24)"/><path class="cls-1" d="M53.79,53.42a40.39,40.39,0,0,1-8.58,2.32,53.3,53.3,0,0,1-13.47.49,25.65,25.65,0,0,1-8.34-1.86,6.24,6.24,0,0,1-1.46-.9,1.43,1.43,0,0,1-.23-2.31,7.32,7.32,0,0,1,4-2.39,10.92,10.92,0,0,1,1.37-.24c0,.11.07.17,0,.19-.93,1.24-.84,1.92.63,2.37a23,23,0,0,0,5.18,1,45.84,45.84,0,0,0,15.55-1.48,1.12,1.12,0,0,1,.81.05C50.77,51.55,52.21,52.45,53.79,53.42Z" transform="translate(-9.24)"/><path class="cls-1" d="M52.62,60.94c-1.32.56-2.46,1.14-3.66,1.52a40,40,0,0,1-14.25,1.78,49.64,49.64,0,0,1-6.64-.86,9,9,0,0,1-2.84-1.21,1.89,1.89,0,0,1-.57-3.05,6.05,6.05,0,0,1,4.94-2.26c-.53,1.32-.36,1.82,1.06,2.14a21.53,21.53,0,0,0,4.31.53A35.57,35.57,0,0,0,47,57.78a.88.88,0,0,1,.64,0C49.27,58.8,50.85,59.81,52.62,60.94Z" transform="translate(-9.24)"/><path class="cls-1" d="M72.08,68.65a5.61,5.61,0,0,1-1.57,3.66,15.82,15.82,0,0,1-6.64,4.09C56.56,79,49,79.62,41.31,79.26A67.25,67.25,0,0,1,22,75.62c-.47-.16-.93-.34-1.39-.52a3.2,3.2,0,0,1-.36-.19c2.41.42,4.78.88,7.16,1.23a91.06,91.06,0,0,0,17.14,1A70.13,70.13,0,0,0,58,75.31a35.16,35.16,0,0,0,12-5C70.64,69.81,71.31,69.24,72.08,68.65Z" transform="translate(-9.24)"/><path class="cls-1" d="M56.27,56.74c1.28-1.1,2.5-2.07,3.62-3.13A15.23,15.23,0,0,0,64,47.8c.85-2.41.36-4.27-1.5-5.52a5.93,5.93,0,0,0-3.71-.94l-.82,0c2.2-1.87,6.71-2.72,9.2-.32,2,1.91,2.1,4.32,1.58,6.81a8.87,8.87,0,0,1-3.51,5.28A20.06,20.06,0,0,1,56.27,56.74Z" transform="translate(-9.24)"/></svg>