<svg id="Layer_1" data-name="Layer 1" xmlns="http://www.w3.org/2000/svg" viewBox="0 0 1405.27 230.54"><defs><style>.cls-1{fill:#d60b3e;}</style></defs><path d="M102.76,266.68V407.62h-27L76,357.08a25.33,25.33,0,0,0-2.32-10.67,30,30,0,0,0-6-8.75,26.71,26.71,0,0,0-8.86-5.84,28.51,28.51,0,0,0-11-2.12,27.72,27.72,0,0,0-10.87,2.12,26.25,26.25,0,0,0-8.76,5.94,29.46,29.46,0,0,0-5.94,8.86,27.72,27.72,0,0,0,0,21.74,28.15,28.15,0,0,0,5.94,8.76,28.5,28.5,0,0,0,8.76,5.94,26.58,26.58,0,0,0,10.87,2.21,39.72,39.72,0,0,0,5.64-.4,17.23,17.23,0,0,0,5.23-1.61h.4l9.87,18.12-.2.2q-9.87,7.65-24.16,7.65a51.63,51.63,0,0,1-36.85-15.1A53.08,53.08,0,0,1-3.44,377.62a51.15,51.15,0,0,1,0-40.27A53.2,53.2,0,0,1,7.73,320.84a51.74,51.74,0,0,1,36.85-15.1q20.54,0,31.41,15.3V266.68Z" transform="translate(118.43 -218.96)"/><path d="M164.77,305.34a50.35,50.35,0,0,1,20.34,4.13,52.62,52.62,0,0,1,27.68,27.68,51.15,51.15,0,0,1,0,40.27,52.62,52.62,0,0,1-27.68,27.68,52.13,52.13,0,0,1-40.67,0,52.68,52.68,0,0,1-27.69-27.68,51.26,51.26,0,0,1,0-40.27,52.68,52.68,0,0,1,27.69-27.68A50.34,50.34,0,0,1,164.77,305.34Zm0,79.93a20.24,20.24,0,0,0,9.37-2.21,25,25,0,0,0,7.65-6.14,30.48,30.48,0,0,0,5.23-9.06,31.7,31.7,0,0,0,1.91-11.18A30.5,30.5,0,0,0,187,345.91a27.93,27.93,0,0,0-5.23-8.86,26.4,26.4,0,0,0-7.65-5.94,20.37,20.37,0,0,0-9.37-2.21,21,21,0,0,0-9.46,2.21,25.78,25.78,0,0,0-7.75,5.94,27.76,27.76,0,0,0-5.24,8.86,30.73,30.73,0,0,0-1.91,10.77,31.93,31.93,0,0,0,1.91,11.18,30.29,30.29,0,0,0,5.24,9.06,24.47,24.47,0,0,0,7.75,6.14A20.82,20.82,0,0,0,164.77,385.27Z" transform="translate(118.43 -218.96)"/><path d="M286.58,382.25l9.67,17.52v.2q-10.47,9.27-26,9.26-24.57,0-34.84-13.29Q226,384.06,226,358.09V307h27.58v51.14c0,3.63.11,7.12.31,10.47a22.54,22.54,0,0,0,2.21,8.86,14.44,14.44,0,0,0,5.94,6.14q4,2.32,11.48,2.32a22.18,22.18,0,0,0,6.64-1,30,30,0,0,0,6-2.62ZM328.87,307V408.23H301.28V307Z" transform="translate(118.43 -218.96)"/><path d="M450.07,307v89.19a58,58,0,0,1-5,21,54.1,54.1,0,0,1-29,28.19,53.69,53.69,0,0,1-20.94,4.13,55.44,55.44,0,0,1-47.91-27.38l-.21-.41.21-.2,22.14-9.66a23.15,23.15,0,0,0,5.14,6.34,30.16,30.16,0,0,0,6.64,4.43,36.61,36.61,0,0,0,7.25,2.62,30.37,30.37,0,0,0,7.15.9,25.39,25.39,0,0,0,10.27-2.21,27.29,27.29,0,0,0,9-6.46A32.3,32.3,0,0,0,421,407.38a35.43,35.43,0,0,0,2.31-13.11V357.35a26.52,26.52,0,0,0-2.31-11,28.15,28.15,0,0,0-6.24-8.88,30.75,30.75,0,0,0-9.06-6,28.18,28.18,0,0,0-21.95,0,29.48,29.48,0,0,0-9,6,28,28,0,0,0-8.26,20,27,27,0,0,0,2.22,10.95,29.12,29.12,0,0,0,6,8.92,28.37,28.37,0,0,0,9,6.08,27.17,27.17,0,0,0,11,2.23,24.87,24.87,0,0,0,10.87-2.21h.21l.2.2L416,401.45l-.2.2q-9.87,8-24.36,8a51.8,51.8,0,0,1-20.54-4.12,51.88,51.88,0,0,1-27.88-27.79,51.88,51.88,0,0,1,0-40.57,52.08,52.08,0,0,1,27.88-27.68,51.8,51.8,0,0,1,20.54-4.13q20.53,0,31.81,15.37V307Z" transform="translate(118.43 -218.96)"/><path d="M488.93,266.68V407.62H462.15l.2-140.94Z" transform="translate(118.43 -218.96)"/><path d="M609.13,307V407.62H582.75V357.16a26.92,26.92,0,0,0-2.21-10.9,28.36,28.36,0,0,0-26-17,26.62,26.62,0,0,0-10.87,2.22,31.13,31.13,0,0,0-9,6,26.6,26.6,0,0,0-6.14,8.89,27.48,27.48,0,0,0-2.21,11,26.33,26.33,0,0,0,2.21,10.71,28.2,28.2,0,0,0,6.14,8.89,30,30,0,0,0,9,6.06,26.62,26.62,0,0,0,10.87,2.22,23.59,23.59,0,0,0,10.67-2.21h.21v.4l10.06,17.92-.2.2q-9.87,7.65-24.36,7.65a50.89,50.89,0,0,1-20.13-4,51.61,51.61,0,0,1-16.51-11.08,53.11,53.11,0,0,1-11.18-16.51A49.84,49.84,0,0,1,499,357.49a50.35,50.35,0,0,1,4.13-20.34,52.68,52.68,0,0,1,27.69-27.68,49.77,49.77,0,0,1,20.13-4.13,40.81,40.81,0,0,1,18.32,3.89,38.27,38.27,0,0,1,13.49,11.28V307Z" transform="translate(118.43 -218.96)"/><path d="M666.51,347.82q6.65,2.22,12.18,4.53a42,42,0,0,1,9.66,5.54,23.19,23.19,0,0,1,6.45,7.75,23.44,23.44,0,0,1,2.31,10.77v.2q0,15.31-10.16,24t-28.49,8.66a66.46,66.46,0,0,1-22.55-4A77.14,77.14,0,0,1,615.17,394l-.2-.2.2-.2L628.86,372l.2.21A41.13,41.13,0,0,0,642.75,382a40.42,40.42,0,0,0,16.31,3.32q11.88,0,11.88-7.63,0-3.61-3.83-5.42a70.16,70.16,0,0,0-9.06-3.42,7.84,7.84,0,0,0-1.91-.5,7,7,0,0,1-1.91-.5q-6-1.6-12.08-3.51a41.21,41.21,0,0,1-10.88-5.23,27.28,27.28,0,0,1-7.95-8.43q-3.12-5.11-3.12-13.16v-.4a30.92,30.92,0,0,1,2.62-12.85,28.87,28.87,0,0,1,7.45-10A33.91,33.91,0,0,1,642,307.65a47,47,0,0,1,15.1-2.31,68.82,68.82,0,0,1,19.53,2.92,67.41,67.41,0,0,1,18.32,8.56v.4l-12.28,22.35-.2-.2A33.43,33.43,0,0,0,670.94,332a39,39,0,0,0-14.5-2.72,30.59,30.59,0,0,0-3.22.2,9.18,9.18,0,0,0-3.32,1,7.73,7.73,0,0,0-2.52,2.11,6,6,0,0,0-1,3.73,4.49,4.49,0,0,0,1.61,3.32,18.07,18.07,0,0,0,4.12,2.82,56,56,0,0,0,5.64,2.51q3.12,1.22,6.14,2.22a5,5,0,0,1,1.31.2Z" transform="translate(118.43 -218.96)"/><path class="cls-1" d="M707.18,307H734V407.62H707.18Zm109.12-1.61q9.47,0,16,3.72a30.83,30.83,0,0,1,10.57,9.77,41.88,41.88,0,0,1,5.84,13.59,64.79,64.79,0,0,1,1.81,15.2v60H823.75l.21-60.16a15.31,15.31,0,0,0-1.21-6,17.09,17.09,0,0,0-3.32-5.05,15.74,15.74,0,0,0-5-3.53,14.71,14.71,0,0,0-6.14-1.32A15.15,15.15,0,0,0,797,336.26a15.49,15.49,0,0,0-4.63,11.2v60.16H765.57V347.46a15.13,15.13,0,0,0-1.21-6,16.12,16.12,0,0,0-3.42-5.05,15.71,15.71,0,0,0-5.14-3.43,16.86,16.86,0,0,0-6.54-1.21,13.54,13.54,0,0,1-1.81-3q-1.62-3-3.63-6.6-2.22-4.19-5.43-9.58l.2-.4a30.24,30.24,0,0,1,19.12-6.8q11.28,0,18.33,5a34.38,34.38,0,0,1,10.87,12.38,18.15,18.15,0,0,1,1.61-2.4,39.45,39.45,0,0,1,12.79-11.18A31.52,31.52,0,0,1,816.3,305.34Z" transform="translate(118.43 -218.96)"/><path class="cls-1" d="M970.73,307V407.62H944.36V357.16a26.76,26.76,0,0,0-2.22-10.9,27.93,27.93,0,0,0-6.14-8.88,28.33,28.33,0,0,0-19.83-8.08,26.58,26.58,0,0,0-10.87,2.22,31,31,0,0,0-9,6,26.46,26.46,0,0,0-6.14,8.89,27.49,27.49,0,0,0-2.22,11,26.34,26.34,0,0,0,2.22,10.71,28,28,0,0,0,6.14,8.89,29.91,29.91,0,0,0,9,6.06,26.58,26.58,0,0,0,10.87,2.22,23.62,23.62,0,0,0,10.67-2.21h.2v.4l10.07,17.92-.2.2q-9.87,7.65-24.37,7.65a51,51,0,0,1-20.13-4,51.83,51.83,0,0,1-16.51-11.08,53.08,53.08,0,0,1-11.17-16.51,49.67,49.67,0,0,1-4.13-20.13,50.19,50.19,0,0,1,4.13-20.34,52.62,52.62,0,0,1,27.68-27.68,49.84,49.84,0,0,1,20.13-4.13,40.89,40.89,0,0,1,18.33,3.89,38.36,38.36,0,0,1,13.49,11.28V307Z" transform="translate(118.43 -218.96)"/><path class="cls-1" d="M1028.11,347.82q6.65,2.22,12.18,4.53a41.83,41.83,0,0,1,9.67,5.54,23,23,0,0,1,6.44,7.75,23.44,23.44,0,0,1,2.32,10.77v.2q0,15.31-10.17,24t-28.49,8.66a66.51,66.51,0,0,1-22.55-4A77.29,77.29,0,0,1,976.77,394l-.2-.2.2-.2L990.46,372l.2.21a41.07,41.07,0,0,0,13.7,9.76,40.38,40.38,0,0,0,16.3,3.32q11.88,0,11.88-7.63,0-3.61-3.82-5.42a70.16,70.16,0,0,0-9.06-3.42,8,8,0,0,0-1.91-.5,7,7,0,0,1-1.92-.5q-6-1.6-12.08-3.51a41,41,0,0,1-10.87-5.23,27.28,27.28,0,0,1-8-8.43c-2.09-3.41-3.12-7.8-3.12-13.16v-.4a31.07,31.07,0,0,1,2.61-12.85,29,29,0,0,1,7.45-10,34,34,0,0,1,11.68-6.53,47,47,0,0,1,15.1-2.31,68.82,68.82,0,0,1,19.53,2.92,67.13,67.13,0,0,1,18.32,8.56v.4l-12.28,22.35-.2-.2a33.43,33.43,0,0,0-11.48-7.35,38.92,38.92,0,0,0-14.49-2.72,30.44,30.44,0,0,0-3.22.2,9.24,9.24,0,0,0-3.33,1,7.8,7.8,0,0,0-2.51,2.11,6,6,0,0,0-1,3.73,4.49,4.49,0,0,0,1.61,3.32,18.15,18.15,0,0,0,4.13,2.82,54.06,54.06,0,0,0,5.64,2.51q3.1,1.22,6.14,2.22a4.9,4.9,0,0,1,1.3.2Z" transform="translate(118.43 -218.96)"/><path class="cls-1" d="M1071,266.68h26.78l-.2,140.94H1070.8ZM1163.28,319q9,12.08,9,38.26v50.33h-26.78v-50.2q0-5.43-.3-10.45a23.69,23.69,0,0,0-2.11-8.83,13.33,13.33,0,0,0-5.84-6q-4-2.21-11.48-2.21a30,30,0,0,0-12.68,3.23l-.2.2-.2-.41L1103,315.49l.2-.21a35.73,35.73,0,0,1,11.68-7,41,41,0,0,1,14.09-2.34Q1153.3,305.94,1163.28,319Z" transform="translate(118.43 -218.96)"/><path class="cls-1" d="M1234.69,305.34a50.31,50.31,0,0,1,20.33,4.13,52.68,52.68,0,0,1,27.69,27.68,51.26,51.26,0,0,1,0,40.27A52.68,52.68,0,0,1,1255,405.1a52.13,52.13,0,0,1-40.67,0,52.62,52.62,0,0,1-27.68-27.68,51.15,51.15,0,0,1,0-40.27,52.62,52.62,0,0,1,27.68-27.68A50.35,50.35,0,0,1,1234.69,305.34Zm0,79.93a20.23,20.23,0,0,0,9.36-2.21,24.9,24.9,0,0,0,7.65-6.14,30.29,30.29,0,0,0,5.24-9.06,31.93,31.93,0,0,0,1.91-11.18,30.73,30.73,0,0,0-1.91-10.77,27.76,27.76,0,0,0-5.24-8.86,26.26,26.26,0,0,0-7.65-5.94,20.35,20.35,0,0,0-9.36-2.21,21,21,0,0,0-9.47,2.21,25.91,25.91,0,0,0-7.75,5.94,27.74,27.74,0,0,0-5.23,8.86,30.5,30.5,0,0,0-1.91,10.77,31.7,31.7,0,0,0,1.91,11.18,30.27,30.27,0,0,0,5.23,9.06,24.59,24.59,0,0,0,7.75,6.14A20.86,20.86,0,0,0,1234.69,385.27Z" transform="translate(118.43 -218.96)"/><path class="cls-1" d="M-118.43,219v85.78H-17.26V219ZM-43,292.85H-55.45V280.44h-1.09v-5.65h-2.73v-6.72h3.81V255.66a12.1,12.1,0,0,0-1-4.82A12.37,12.37,0,0,0-63,244.22a12.18,12.18,0,0,0-4.77-1h-.05a12.1,12.1,0,0,0-4.82,1,12.43,12.43,0,0,0-6.62,6.62,12.07,12.07,0,0,0-1,4.82v12.42h4v6.71H-79v5.66h-1.29v12.41H-92.65v-37.2a24.1,24.1,0,0,1,2-9.66,25.23,25.23,0,0,1,5.3-7.89,24.66,24.66,0,0,1,7.87-5.32,24.1,24.1,0,0,1,9.66-1.95h.05a24.29,24.29,0,0,1,9.62,1.95A24.89,24.89,0,0,1-45,246a24.1,24.1,0,0,1,2,9.66Z" transform="translate(118.43 -218.96)"/></svg>