<svg id="Layer_1" data-name="Layer 1" xmlns="http://www.w3.org/2000/svg" viewBox="0 0 79.78 70.98"><defs><style>.cls-1{fill:#fff;}</style></defs><path class="cls-1" d="M40.11,31.28a7.12,7.12,0,1,0,7.12,7.11A7.12,7.12,0,0,0,40.11,31.28ZM20.19,52.54l-1.57-.39c-11.69-3-18.4-8-18.4-13.77s6.71-10.8,18.4-13.76l1.57-.39.44,1.56a78.42,78.42,0,0,0,4.53,11.89l.34.7-.34.72A76.84,76.84,0,0,0,20.63,51Zm-2.3-24.29C9,30.75,3.56,34.58,3.56,38.38S9,46,17.89,48.51a84.59,84.59,0,0,1,3.94-10.13A82.31,82.31,0,0,1,17.89,28.25ZM60,52.54,59.59,51A77.51,77.51,0,0,0,55.06,39.1l-.34-.72.34-.71a77,77,0,0,0,4.53-11.9L60,24.23l1.57.39c11.69,3,18.4,8,18.4,13.76s-6.71,10.8-18.4,13.77ZM58.39,38.38a82.26,82.26,0,0,1,3.94,10.13c8.89-2.5,14.33-6.32,14.33-10.13s-5.45-7.62-14.33-10.13A84.59,84.59,0,0,1,58.39,38.38ZM17.87,28.24l-.44-1.56C14.14,15.1,15.14,6.79,20.17,3.89s12.84.52,21.13,9l1.13,1.16L41.3,15.24a80.27,80.27,0,0,0-8,9.87l-.45.64-.78.06a78.52,78.52,0,0,0-12.58,2Zm6.31-22a4.55,4.55,0,0,0-2.35.57c-3.3,1.91-3.89,8.53-1.61,17.46A82.58,82.58,0,0,1,31,22.57a80.26,80.26,0,0,1,6.81-8.46c-5.18-5-10.09-7.91-13.6-7.91ZM56.06,73.88h0c-4.74,0-10.83-3.56-17.14-10l-1.13-1.16,1.13-1.15a79.52,79.52,0,0,0,8-9.87l.44-.64.78-.07a76.81,76.81,0,0,0,12.59-2l1.57-.39.45,1.56C66.08,61.66,65.08,70,60.06,72.85a7.73,7.73,0,0,1-4,1ZM42.43,62.65C47.61,67.7,52.52,70.56,56,70.56h0A4.74,4.74,0,0,0,58.39,70c3.3-1.91,3.9-8.53,1.61-17.47a81.42,81.42,0,0,1-10.75,1.67,81.4,81.4,0,0,1-6.82,8.46ZM62.35,28.24l-1.57-.4a80.16,80.16,0,0,0-12.59-2l-.78-.06L47,25.11a80.27,80.27,0,0,0-8-9.87l-1.13-1.15,1.13-1.16c8.29-8.52,16.2-11.88,21.14-9s6,11.21,2.74,22.79Zm-13.1-5.67A83.93,83.93,0,0,1,60,24.24c2.28-8.93,1.68-15.56-1.62-17.46s-9.46,1-16,7.33a86.3,86.3,0,0,1,6.81,8.46ZM24.18,73.88a7.68,7.68,0,0,1-4-1c-5-2.9-6-11.2-2.74-22.78l.44-1.56,1.57.39a77.65,77.65,0,0,0,12.58,2l.78.08.44.63a78.79,78.79,0,0,0,8,9.87l1.13,1.16-1.13,1.15c-6.3,6.5-12.39,10-17.11,10Zm-4-21.36C17.93,61.46,18.53,68.08,21.83,70s9.45-1,16-7.34A81.51,81.51,0,0,1,31,54.18a81.14,81.14,0,0,1-10.75-1.66Zm19.89,2.09c-2.74,0-5.54-.12-8.36-.35L31,54.2l-.46-.65c-1.58-2.29-3.09-4.64-4.48-7s-2.68-4.88-3.88-7.4l-.33-.72.33-.71c1.2-2.52,2.48-5,3.88-7.4s2.89-4.75,4.48-7l.46-.65.78-.07a99.31,99.31,0,0,1,16.72,0l.78.07.46.65a100.3,100.3,0,0,1,8.36,14.45l.33.71-.33.72a99.91,99.91,0,0,1-8.36,14.45l-.46.65-.78.06C45.67,54.49,42.85,54.61,40.11,54.61ZM32.81,51a93.76,93.76,0,0,0,14.61,0,97.6,97.6,0,0,0,7.3-12.62,94.31,94.31,0,0,0-7.31-12.62,93.63,93.63,0,0,0-14.6,0A93.24,93.24,0,0,0,25.5,38.38,96.52,96.52,0,0,0,32.81,51Z" transform="translate(-0.22 -2.9)"/></svg>