<svg id="Layer_1" data-name="Layer 1" xmlns="http://www.w3.org/2000/svg" viewBox="0 0 78.86 74.9"><defs><style>.cls-1{fill:#fff;}</style></defs><path class="cls-1" d="M55.21,54.86a5.64,5.64,0,0,0-.59-11.25H54.4A5.62,5.62,0,0,0,49,49.43a5.85,5.85,0,0,0,1.6,3.73C47.16,59.88,42,64.81,34.12,68.91A27.12,27.12,0,0,1,17.76,72c-4.54-.61-8-2.62-10.24-5.91a14.79,14.79,0,0,1-.8-15.57,23.68,23.68,0,0,1,6.84-8,49,49,0,0,1-1.29-5.12C-2.28,47.92-.8,62.19,3.64,68.91c3.33,5,10,8.14,17.48,8.14a25.24,25.24,0,0,0,6-.71A38.51,38.51,0,0,0,55.21,54.86ZM72.87,42.4C65.22,33.47,54,28.53,41.15,28.53h-1.6a5.52,5.52,0,0,0-4.93-3H34.4a5.64,5.64,0,0,0,.22,11.28h.21a5.64,5.64,0,0,0,4.93-3.42h1.82A38.24,38.24,0,0,1,63,39.91,27,27,0,0,1,73.61,52.76a13.91,13.91,0,0,1-.22,11.84,14.7,14.7,0,0,1-13.75,8.23,25.94,25.94,0,0,1-9.83-2.1,51.62,51.62,0,0,1-4.53,3.61,31.07,31.07,0,0,0,12.95,3.11c9.64,0,16.76-5.33,19.48-10.63C80.6,61,80.39,50.94,72.87,42.4Zm-51,14.18A5.64,5.64,0,0,0,27.46,62h.22a5.63,5.63,0,0,0-.18-11.25h-.22a1.93,1.93,0,0,0-.71.09,36.68,36.68,0,0,1-5.21-22.29A27,27,0,0,1,27.28,13c2.9-3.73,8.54-5.52,12.36-5.61C50.27,7.17,54.8,20.46,55.11,25.76c1.3.31,3.52,1,5,1.51C58.9,11,48.89,2.55,39.24,2.55c-9,0-17.39,6.53-20.68,16.18-4.63,12.86-1.61,25.22,4,35A4.52,4.52,0,0,0,21.85,56.58Z" transform="translate(-0.57 -2.55)"/></svg>