<svg id="Layer_1" data-name="Layer 1" xmlns="http://www.w3.org/2000/svg" viewBox="0 0 79.34 79.25"><defs><style>.cls-1{fill:#fff;}.cls-2{fill:#010101;}</style></defs><path class="cls-1" d="M60.62,6.11A40.15,40.15,0,0,0,30,1.62C14.48,5.47,2.21,19.48.64,35.37a39.64,39.64,0,1,0,60-29.26ZM42.21,73.76c-18,1.8-35.46-13.48-36-31.59C4.9,27.51,14.56,13,28.38,8.12,47.78.36,71.56,14.69,73.57,35.49,76.7,54.2,61.17,73.21,42.21,73.76Z" transform="translate(-0.33 -0.37)"/><path class="cls-2" d="M42.3,38C47,30.87,51.75,23.8,56.41,16.64,47.53,23.54,39,30.89,30.33,38,34.31,38,38.31,38,42.3,38Z" transform="translate(-0.33 -0.37)"/><path class="cls-2" d="M23.57,63.35C32.47,56.47,40.94,49.07,49.69,42c-4,0-8,0-12,0C33,49.1,28.23,56.19,23.57,63.35Z" transform="translate(-0.33 -0.37)"/><path class="cls-1" d="M23.58,63.35C28.24,56.19,33,49.11,37.69,42c4,0,8,0,12,.06C41,49.07,32.48,56.48,23.58,63.35ZM42.31,38c-4,0-8,0-12,0,8.69-7.1,17.2-14.45,26.08-21.34C51.76,23.81,47,30.87,42.31,38Z" transform="translate(-0.33 -0.37)"/></svg>