<svg id="Layer_1" data-name="Layer 1" xmlns="http://www.w3.org/2000/svg" viewBox="0 0 71.22 80"><defs><style>.cls-1{fill:#fff;}</style></defs><path class="cls-1" d="M13.72,40A26.46,26.46,0,0,1,63.05,26.67L74.72,20a7,7,0,0,0-2.56-2.51L43.72,1.08a7,7,0,0,0-7.58.08c-3.76,2.23-22.64,13-28.3,16.29A6.59,6.59,0,0,0,4.39,23.5v33A7.1,7.1,0,0,0,5.23,60l12-6.88A26.52,26.52,0,0,1,13.72,40Z" transform="translate(-4.39 0)"/><path class="cls-1" d="M51.54,33.3a13.16,13.16,0,0,0-11.19-6.49h-.14a13.17,13.17,0,0,0-11.5,19.61L40.1,39.87l0,0L63.05,26.7h0Z" transform="translate(-4.39 0)"/><path class="cls-1" d="M75.58,25.7V56.5A7.39,7.39,0,0,1,74.77,60h0a7.1,7.1,0,0,0,.84-3.49S75.58,37.17,75.58,25.7Z" transform="translate(-4.39 0)"/><path class="cls-1" d="M74.75,60,63.1,53.24A26.44,26.44,0,0,1,40.49,66.42h-.31A26.44,26.44,0,0,1,17.23,53.13a.07.07,0,0,0,0-.05L5.23,60a7,7,0,0,0,2.61,2.59c5.63,3.26,24.51,14.06,28.3,16.29a7,7,0,0,0,7.58.08L72.16,62.55A6.6,6.6,0,0,0,74.75,60l0,0A0,0,0,0,0,74.75,60Z" transform="translate(-4.39 0)"/><path class="cls-1" d="M28.71,46.42s0,.06.05.11a13.18,13.18,0,0,0,22.84.06L40.1,39.9h0l0,0Z" transform="translate(-4.39 0)"/><path class="cls-1" d="M63.1,26.76l-.05-.09L40.13,39.87l11.5,6.66v0h0l0-.08s0,.06,0,.08l11.5,6.66v0l11.64,6.74a6.94,6.94,0,0,0,.81-3.46v-33a7.17,7.17,0,0,0-.86-3.57L63.05,26.64C63.08,26.7,63.08,26.73,63.1,26.76Zm1.28,5.62h1.87v3.76H70V38H66.25v3.76H70v1.86H66.25v3.76H64.38V43.63H60.62v3.76H58.76V43.63H55V41.77h3.76V38H55V36.14h3.76V32.38h1.86v3.76h3.76Z" transform="translate(-4.39 0)"/><rect class="cls-1" x="56.23" y="38.01" width="3.76" height="3.76"/><path class="cls-1" d="M51.6,46.59h0L40.13,39.9h0Z" transform="translate(-4.39 0)"/><path class="cls-1" d="M63.1,53.24,74.75,60a0,0,0,0,1,0,0L63.13,53.22S63.1,53.22,63.1,53.24Z" transform="translate(-4.39 0)"/><path class="cls-1" d="M51.63,46.53h0a.35.35,0,0,0,0-.08Z" transform="translate(-4.39 0)"/><path class="cls-1" d="M63.1,26.76s0-.06-.05-.09h0Z" transform="translate(-4.39 0)"/><path class="cls-1" d="M63.13,53.19l-11.5-6.66v0l11.5,6.63Z" transform="translate(-4.39 0)"/><path class="cls-1" d="M51.63,46.56h0L63.1,53.24s0,0,0,0Z" transform="translate(-4.39 0)"/></svg>