<svg id="Layer_1" data-name="Layer 1" xmlns="http://www.w3.org/2000/svg" viewBox="0 0 77.96 78.46"><defs><style>.cls-1{fill:#fff;}.cls-2{fill:#a8a8a8;}.cls-3{fill:#afafaf;}</style></defs><path class="cls-1" d="M22.38,22.13l-5.06-5.07,0,36.66.06,1.71a12,12,0,0,0,.42,2.66L58,72.26l10-4.45h0L22.38,22.13" transform="translate(-1.02 -0.77)"/><path class="cls-2" d="M17.82,58.09h0V58a0,0,0,0,0,0,0Zm50.23,9.72L58,72.26,17.82,58.09a19.3,19.3,0,0,0,4.29,8.06l13.12,13,29.16,0,3.66-11.44h0Z" transform="translate(-1.02 -0.77)"/><path class="cls-3" d="M1.68,40.65C.39,42,1,44.9,3.13,47l9,9.09,5.67,2a12.62,12.62,0,0,1-.43-2.66l-.06-1.72V17.06Z" transform="translate(-1.02 -0.77)"/><path class="cls-3" d="M58.34,17.53a12.17,12.17,0,0,0-2.67-.42l-1.81-.06H17.32L68.06,67.8h0l4.46-10.06L58.34,17.53" transform="translate(-1.02 -0.77)"/><path class="cls-2" d="M58.29,17.52h0Zm8.11,4.31a18.77,18.77,0,0,0-8.06-4.29l14.18,40.2L68.07,67.8h0L79,64.32l0-29.86L66.41,21.83Z" transform="translate(-1.02 -0.77)"/><path class="cls-1" d="M56.35,11.89l-9.09-9c-2.1-2.09-5-2.72-6.34-1.44L17.32,17.06H53.86l1.81.07a12.78,12.78,0,0,1,2.67.41Z" transform="translate(-1.02 -0.77)"/></svg>