<svg id="Layer_1" data-name="Layer 1" xmlns="http://www.w3.org/2000/svg" viewBox="0 0 79.56 79.54"><defs><style>.cls-1{fill:#fff;}</style></defs><path class="cls-1" d="M78.5,36.46,43.77,1.73a5.12,5.12,0,0,0-7.24,0L29.31,8.94l9.15,9.15a6.09,6.09,0,0,1,7.71,7.75L55,34.66a6.09,6.09,0,1,1-3.65,3.44l-8.22-8.22V51.51a6,6,0,0,1,1.61,1.16,6,6,0,1,1-7-1.33V29.5a6.39,6.39,0,0,1-1.8-1.33,6.07,6.07,0,0,1-1.22-6.67l-9-9L1.93,36.3a5.12,5.12,0,0,0,0,7.24L36.68,78.27a5.13,5.13,0,0,0,7.25,0L78.5,43.7a5.12,5.12,0,0,0,0-7.24Z" transform="translate(-0.44 -0.23)"/></svg>