<svg id="Layer_1" data-name="Layer 1" xmlns="http://www.w3.org/2000/svg" viewBox="0 0 71.34 80"><defs><style>.cls-1{fill:#fff;}</style></defs><path class="cls-1" d="M74.82,1.11A3.34,3.34,0,0,0,72.33,0H7.67A3.34,3.34,0,0,0,4.35,3.71L11.7,69.89a3.33,3.33,0,0,0,2.4,2.84l25,7.14A3.2,3.2,0,0,0,40,80a3.25,3.25,0,0,0,.92-.13l25-7.14a3.33,3.33,0,0,0,2.4-2.84L75.65,3.71A3.38,3.38,0,0,0,74.82,1.11Zm-16,23.7H29l.71,8.49H58.08L56,58.37,40,63.44l-.16,0-15.76-5-.86-10.21H31l.34,4,8.8,1.94,8.66-2,.91-10.72h-27l-2.09-24.7H59.49Z" transform="translate(-4.33)"/></svg>