<svg id="Layer_1" data-name="Layer 1" xmlns="http://www.w3.org/2000/svg" viewBox="0 0 79.77 79.77"><defs><style>.cls-1{fill:#fff;}</style></defs><path class="cls-1" d="M.23,0V79.77H80V0ZM43.64,62.21c0,7.77-4.55,11.3-11.19,11.3-6,0-9.48-3.1-11.24-6.85h0l6.1-3.7c1.18,2.09,2.25,3.86,4.82,3.86s4-1,4-4.71V36.62h7.49Zm17.73,11.3c-7,0-11.46-3.32-13.66-7.66h0l6.11-3.53c1.6,2.62,3.69,4.55,7.39,4.55,3.1,0,5.08-1.55,5.08-3.69,0-2.57-2-3.48-5.46-5L59,57.39c-5.41-2.3-9-5.19-9-11.29,0-5.62,4.29-9.91,11-9.91,4.76,0,8.19,1.66,10.65,6l-5.83,3.75c-1.29-2.31-2.68-3.22-4.82-3.22a3.27,3.27,0,0,0-3.59,3.22c0,2.25,1.39,3.16,4.61,4.55l1.87.8c6.37,2.73,10,5.52,10,11.78C73.79,69.82,68.49,73.51,61.37,73.51Z" transform="translate(-0.23)"/></svg>