<svg id="Layer_1" data-name="Layer 1" xmlns="http://www.w3.org/2000/svg" viewBox="0 0 70.46 79.46"><defs><style>.cls-1{fill:#fff;}</style></defs><path class="cls-1" d="M40,79.73a6,6,0,0,1-3-.82l-9.72-5.75c-1.45-.81-.74-1.1-.26-1.27a19.26,19.26,0,0,0,4.39-2,.76.76,0,0,1,.73,0l7.46,4.44a1,1,0,0,0,.9,0L69.57,57.59A.9.9,0,0,0,70,56.8V23.19a.94.94,0,0,0-.46-.81L40.45,5.59a.9.9,0,0,0-.9,0l-29.1,16.8a.93.93,0,0,0-.46.8v33.6a.91.91,0,0,0,.46.78l8,4.6c4.33,2.17,7-.38,7-2.94V26.05a.85.85,0,0,1,.85-.85H30a.85.85,0,0,1,.85.85h0V59.23c0,5.78-3.14,9.08-8.62,9.08a12.44,12.44,0,0,1-6.7-1.82L7.82,62.1a6.14,6.14,0,0,1-3.05-5.31V23.19a6.15,6.15,0,0,1,3.05-5.33L36.94,1.05a6.39,6.39,0,0,1,6.12,0L72.18,17.86a6.14,6.14,0,0,1,3,5.31V56.79a6.14,6.14,0,0,1-3,5.31L43.06,78.91A6.1,6.1,0,0,1,40,79.73Z" transform="translate(-4.77 -0.27)"/><path class="cls-1" d="M34.48,45.54a.85.85,0,0,1,.85-.85h3.76a.85.85,0,0,1,.84.71c.57,3.84,2.27,5.77,10,5.77,6.13,0,8.75-1.39,8.75-4.64,0-1.88-.74-3.27-10.28-4.21-8-.79-12.89-2.55-12.89-8.92,0-5.87,5-9.38,13.25-9.38,9.33,0,14,3.24,14.53,10.19a.84.84,0,0,1-.78.91H58.63a.83.83,0,0,1-.81-.65c-.91-4-3.13-5.33-9.09-5.33-6.69,0-7.47,2.34-7.47,4.09,0,2.11.92,2.73,10,3.93S64.42,40,64.42,46.3s-5.29,10-14.52,10C37.15,56.3,34.48,50.45,34.48,45.54Z" transform="translate(-4.77 -0.27)"/></svg>