<svg id="Layer_1" data-name="Layer 1" xmlns="http://www.w3.org/2000/svg" viewBox="0 0 79.84 79.84"><defs><style>.cls-1{fill:#fff;}</style></defs><path class="cls-1" d="M40.08.16A39.92,39.92,0,1,1,.16,40.08,39.92,39.92,0,0,1,40.08.16ZM32.14,53.37a10.24,10.24,0,0,1-.08,6l-.21.6c-.08.2-.18.4-.26.58a11.58,11.58,0,0,1-1.84,2.71c-2.33,2.52-5.56,3.48-7,2.67s-.75-4.44,1.94-7.29a27.29,27.29,0,0,1,7.06-5h0Zm33-36.12c-1.81-7.1-13.57-9.42-24.69-5.47-6.63,2.35-13.79,6-18.95,10.86-6.13,5.73-7.1,10.72-6.7,12.8,1.43,7.35,11.5,12.18,15.65,15.74v0c-1.23.6-10.17,5.08-12.26,9.74-2.25,4.88.35,8.38,2,8.82,5.24,1.46,10.63-1.2,13.53-5.49a13.8,13.8,0,0,0,1.34-12.22,15.76,15.76,0,0,1,6.09-.35c7,.8,8.39,5.2,8.09,7A4.82,4.82,0,0,1,47,61.83c-.49.3-.65.39-.6.6s.3.3.7.25a5.52,5.52,0,0,0,3.8-4.89c.14-4.3-4-9.08-11.23-9a18.31,18.31,0,0,0-6.24.86,1.45,1.45,0,0,0-.35-.35c-4.49-4.84-12.83-8.23-12.48-14.67.11-2.34.95-8.53,16-16,12.32-6.15,22.16-4.45,23.85-.7,2.44,5.34-5.24,15.27-18.06,16.71-4.89.54-7.44-1.34-8.09-2s-.79-.81-1.05-.65-.14.84,0,1.25a7.69,7.69,0,0,0,4.65,3.63c2.34.76,8.09,1.2,15-1.49,7.73-3,13.76-11.32,12-18.31Z" transform="translate(-0.16 -0.16)"/></svg>